<?xml version="1.0" standalone="no"?>
<!DOCTYPE svg PUBLIC "-//W3C//DTD SVG 20010904//EN"
 "http://www.w3.org/TR/2001/REC-SVG-20010904/DTD/svg10.dtd">
<svg version="1.0" xmlns="http://www.w3.org/2000/svg"
 width="3300.000000pt" height="3300.000000pt" viewBox="0 0 3300.000000 3300.000000"
 preserveAspectRatio="xMidYMid meet">
<metadata>
Created by potrace 1.14, written by Peter Selinger 2001-2017
</metadata>
<g transform="translate(0.000000,3300.000000) scale(0.100000,-0.100000)"
fill="#000000" stroke="none">
<path d="M17157 25614 c-1 -1 -105 -5 -232 -8 -223 -7 -260 -9 -430 -21 -187
-13 -212 -15 -255 -20 -40 -5 -78 -9 -200 -20 -59 -6 -150 -16 -168 -20 -10
-2 -45 -6 -77 -10 -33 -4 -67 -9 -75 -10 -8 -2 -40 -6 -70 -10 -68 -8 -99 -13
-170 -25 -30 -5 -71 -12 -90 -15 -19 -3 -46 -7 -60 -10 -14 -3 -41 -7 -60 -10
-19 -3 -57 -10 -85 -15 -27 -6 -61 -12 -75 -15 -124 -23 -428 -88 -490 -105
-49 -13 -116 -29 -180 -44 -253 -61 -844 -243 -1100 -341 -25 -9 -81 -30 -125
-47 -104 -39 -175 -67 -200 -78 -11 -5 -43 -18 -71 -29 -28 -11 -71 -29 -95
-39 -24 -11 -118 -52 -209 -92 -339 -148 -867 -423 -1175 -611 -16 -10 -43
-26 -60 -35 -73 -41 -602 -391 -690 -457 -370 -277 -555 -421 -563 -439 -2 -5
-8 -8 -12 -8 -5 0 -20 -10 -32 -22 -13 -13 -50 -45 -83 -73 -50 -42 -88 -75
-161 -140 -6 -5 -51 -46 -100 -89 -112 -100 -578 -566 -664 -665 -36 -40 -74
-83 -85 -95 -62 -69 -150 -171 -223 -260 -46 -56 -91 -110 -100 -121 -10 -11
-46 -58 -82 -105 -36 -47 -67 -87 -70 -90 -3 -3 -52 -68 -109 -145 -136 -184
-386 -561 -500 -755 -50 -85 -96 -162 -101 -170 -6 -8 -24 -42 -42 -75 -18
-33 -37 -67 -43 -76 -26 -42 -286 -565 -324 -654 -24 -55 -52 -118 -62 -140
-16 -35 -156 -383 -171 -426 -5 -13 -16 -15 -65 -8 -32 4 -82 10 -112 14 -30
4 -63 8 -74 11 -10 2 -45 6 -76 9 -31 3 -67 8 -81 10 -14 3 -52 7 -85 10 -33
3 -73 8 -90 10 -79 10 -294 30 -435 40 -47 4 -103 8 -125 10 -91 8 -401 19
-555 19 -160 0 -437 -11 -449 -18 -3 -2 -40 -7 -81 -10 -106 -10 -260 -42
-365 -77 -388 -130 -492 -384 -293 -715 86 -144 269 -344 473 -519 39 -33 72
-62 75 -65 10 -10 186 -147 260 -202 189 -139 333 -237 602 -412 175 -113 522
-319 761 -452 l178 -99 -6 -60 c-9 -106 -16 -252 -20 -403 -2 -81 -4 -151 -4
-155 -1 -7 -434 210 -466 233 -5 4 -50 29 -100 55 -49 26 -139 76 -200 110
-60 34 -261 136 -445 228 -184 91 -391 197 -460 234 -69 38 -154 85 -190 105
-147 80 -194 107 -385 221 -1004 600 -1505 1092 -1464 1437 9 82 43 145 114
215 104 102 267 181 505 244 108 29 329 72 430 85 181 23 331 37 520 51 348
25 1406 25 1785 0 33 -2 119 -7 190 -10 72 -3 159 -8 195 -11 67 -6 81 2 19
10 -74 10 -127 16 -194 22 -38 3 -81 7 -95 9 -14 2 -61 7 -105 10 -44 3 -93 8
-110 10 -16 2 -66 6 -110 10 -44 3 -96 8 -115 10 -19 2 -75 7 -125 10 -49 3
-110 8 -135 10 -25 2 -99 7 -165 11 -66 4 -140 8 -165 10 -385 24 -1167 24
-1435 -1 -27 -2 -77 -7 -110 -10 -132 -12 -175 -17 -300 -35 -253 -37 -388
-67 -570 -127 -592 -193 -830 -552 -674 -1016 162 -486 757 -1083 1774 -1781
523 -359 1233 -782 1910 -1136 66 -35 161 -84 210 -110 50 -26 189 -97 311
-158 l221 -111 7 -58 c12 -106 19 -161 31 -238 9 -58 34 -206 40 -235 3 -14 7
-38 10 -55 5 -26 14 -74 29 -150 189 -939 549 -1884 1042 -2742 209 -363 467
-750 706 -1057 45 -60 92 -120 103 -135 21 -30 63 -80 164 -200 520 -619 1096
-1163 1738 -1641 82 -60 153 -114 158 -118 6 -4 46 -33 90 -63 485 -336 861
-561 1350 -808 202 -102 276 -138 539 -256 80 -35 294 -125 301 -125 2 0 29
-11 59 -25 30 -14 58 -25 61 -25 4 0 21 -6 38 -14 34 -15 195 -76 212 -80 6
-2 21 -7 35 -13 25 -10 297 -103 315 -107 6 -2 17 -5 25 -9 16 -5 169 -54 255
-80 185 -57 661 -180 785 -203 14 -3 41 -9 60 -14 48 -12 100 -22 130 -24 l24
-1 1 2612 c0 1436 3 2614 7 2618 5 6 138 -35 558 -170 143 -47 875 -275 948
-296 23 -7 43 -17 44 -23 0 -6 2 -204 4 -441 2 -388 6 -497 20 -575 9 -47 4
-205 -9 -285 -9 -61 -12 -475 -11 -1784 l0 -1704 70 -6 c187 -14 1302 -3 1406
14 12 2 64 6 113 10 97 6 175 13 243 20 63 7 127 14 175 20 166 18 378 47 567
79 213 36 195 33 390 72 96 20 186 38 200 40 14 3 43 10 65 15 22 5 51 12 65
15 155 33 631 163 855 234 200 64 591 200 660 231 11 4 56 22 100 40 44 17 94
36 110 44 17 7 59 25 95 40 36 15 79 33 95 40 17 7 71 31 120 53 151 66 291
132 500 239 274 139 309 157 315 164 3 3 19 12 35 20 44 22 144 78 187 106 21
12 40 23 42 23 24 0 775 487 776 503 0 4 -35 54 -77 110 -43 56 -85 112 -93
124 -8 12 -131 175 -272 363 -142 187 -258 342 -258 344 0 2 26 -3 58 -11 31
-7 93 -22 137 -32 44 -10 208 -48 365 -84 225 -52 875 -195 1010 -222 14 -3
34 -7 45 -9 11 -2 121 -25 245 -50 210 -42 624 -123 680 -132 14 -3 75 -14
135 -25 61 -11 146 -26 190 -34 574 -105 1135 -188 1480 -219 28 -2 118 -11
200 -20 160 -16 213 -21 340 -31 44 -4 91 -8 105 -10 14 -2 75 -7 135 -10 61
-4 121 -8 135 -10 14 -2 81 -7 150 -10 69 -4 150 -8 180 -10 373 -26 1349 -26
1510 -1 14 3 63 7 110 11 95 7 102 8 255 31 126 18 321 66 486 120 451 145
744 325 883 542 53 83 70 127 86 220 42 254 -103 546 -435 877 -210 209 -449
399 -795 630 -400 268 -486 316 -2125 1180 -44 23 -138 73 -210 110 -71 37
-152 80 -180 95 -27 15 -99 53 -160 85 -176 92 -314 165 -399 212 -43 24 -84
43 -90 43 -6 0 0 -6 14 -14 24 -12 325 -197 420 -257 25 -16 93 -59 152 -96
280 -177 392 -250 633 -411 1325 -889 2036 -1545 2135 -1971 17 -72 8 -178
-19 -234 -87 -179 -364 -286 -816 -315 -137 -9 -484 -8 -625 2 -135 10 -329
26 -370 31 -19 2 -109 14 -200 25 -193 25 -199 26 -350 40 -63 6 -133 13 -155
15 -22 3 -101 12 -175 20 -74 9 -148 17 -165 20 -16 2 -84 11 -150 20 -159 21
-439 62 -545 80 -47 7 -103 17 -125 20 -46 7 -42 6 -240 40 -363 63 -1133 217
-1400 280 -33 7 -113 26 -178 40 l-117 27 -32 46 c-36 53 -216 290 -235 310
-18 18 -37 56 -25 48 5 -3 70 -17 143 -32 74 -14 143 -28 154 -30 47 -10 553
-103 590 -108 22 -4 76 -13 120 -21 44 -8 94 -17 110 -19 17 -3 89 -14 160
-26 72 -11 146 -23 165 -26 19 -3 46 -7 60 -9 14 -3 48 -7 75 -10 28 -4 57 -8
65 -10 13 -4 36 -7 135 -19 37 -5 191 -26 225 -31 14 -2 50 -6 80 -10 30 -3
71 -8 90 -10 19 -3 60 -7 90 -10 30 -3 71 -7 90 -10 39 -5 102 -11 200 -20 36
-3 81 -8 100 -10 19 -2 82 -7 140 -11 58 -3 116 -8 130 -9 156 -18 829 -26
1040 -12 688 45 1040 214 1058 508 15 260 -232 574 -773 982 -218 164 -688
474 -895 590 -46 25 -201 115 -220 127 -44 27 -450 251 -607 335 -101 54 -183
100 -183 102 0 3 30 83 66 177 230 598 391 1206 499 1886 5 31 44 331 50 385
2 22 9 96 15 165 6 69 12 145 15 170 23 255 24 1063 0 1230 -2 14 -6 66 -10
115 -6 85 -10 131 -20 215 -3 19 -7 60 -10 90 -3 30 -8 66 -10 80 -2 14 -7 49
-10 79 -4 30 -9 63 -11 75 -2 12 -6 41 -9 66 -6 43 -9 60 -20 120 -3 14 -7 41
-10 60 -2 19 -16 94 -30 165 -15 72 -29 141 -31 155 -30 157 -128 536 -193
750 -85 281 -233 696 -301 845 -5 11 -21 49 -36 85 -24 60 -45 108 -80 185
-59 131 -247 508 -314 630 -46 83 -91 166 -102 185 -10 19 -27 45 -36 58 l-18
23 -84 -111 c-47 -62 -92 -119 -100 -128 -9 -9 -29 -35 -45 -57 -16 -22 -31
-42 -34 -45 -4 -3 -35 -43 -71 -90 -35 -47 -83 -108 -105 -135 -22 -28 -184
-237 -360 -464 -176 -227 -351 -452 -388 -500 -79 -100 -95 -120 -122 -157
-11 -15 -48 -63 -83 -108 -35 -45 -75 -96 -89 -113 -87 -112 -462 -596 -483
-623 -14 -18 -68 -88 -120 -154 -52 -67 -108 -139 -125 -161 -16 -22 -35 -47
-42 -55 -7 -8 -41 -51 -75 -96 -81 -104 -104 -133 -175 -224 -32 -41 -93 -120
-136 -175 -79 -103 -188 -244 -235 -304 -15 -19 -109 -141 -210 -270 -101
-130 -194 -249 -206 -266 -146 -186 -224 -288 -241 -311 -11 -15 -24 -32 -30
-38 -5 -6 -30 -38 -55 -71 -25 -33 -47 -62 -50 -65 -3 -3 -23 -27 -45 -54 -30
-38 -39 -57 -37 -80 5 -56 61 -149 158 -266 53 -63 111 -133 129 -155 41 -49
307 -375 355 -435 19 -24 58 -71 86 -104 27 -34 129 -157 225 -275 154 -190
365 -448 498 -612 25 -31 124 -152 220 -270 96 -118 188 -230 205 -250 17 -20
38 -44 46 -55 18 -23 227 -280 251 -309 46 -54 488 -596 514 -630 17 -21 35
-43 40 -49 6 -6 39 -47 75 -91 35 -44 71 -88 79 -97 9 -9 21 -23 26 -30 6 -7
49 -60 95 -117 47 -58 107 -132 134 -165 27 -34 61 -75 75 -91 14 -17 42 -51
61 -75 19 -24 69 -84 110 -135 41 -50 91 -111 110 -134 112 -139 136 -167 144
-173 19 -13 275 437 444 782 91 187 230 492 255 563 6 16 11 15 54 -12 26 -15
138 -81 248 -146 363 -214 861 -533 1075 -688 628 -453 904 -755 874 -954 -8
-54 -47 -109 -102 -144 -52 -33 -170 -73 -247 -84 -27 -4 -59 -9 -70 -11 -119
-22 -572 -21 -780 1 -22 2 -92 9 -155 15 -63 6 -131 13 -150 15 -19 3 -57 7
-85 11 -79 9 -466 64 -489 69 -12 2 -39 7 -61 10 -110 15 -475 82 -705 130
-152 31 -150 31 -247 45 -109 16 -478 78 -533 89 -25 6 -97 19 -160 31 -63 11
-133 25 -155 30 -22 5 -56 12 -75 15 -28 5 -123 25 -290 60 -8 2 -35 8 -60 14
-25 5 -56 12 -70 14 -31 6 -20 4 -355 82 -154 36 -320 75 -370 88 l-90 22 -57
75 c-32 41 -66 86 -76 98 -9 13 -49 65 -87 115 -201 261 -323 421 -345 451
-73 99 -147 194 -167 214 -12 12 -42 51 -65 85 -38 56 -165 225 -178 237 -3 3
-31 39 -62 80 -31 41 -79 100 -107 130 -28 30 -51 60 -51 67 0 10 -95 142
-161 223 -11 14 -95 124 -187 245 -371 487 -576 753 -702 910 -45 55 -156 203
-248 329 -92 125 -234 312 -317 415 -82 102 -180 227 -217 276 -37 50 -72 95
-77 101 -39 47 -153 236 -188 312 -51 108 -71 188 -66 257 7 92 58 175 319
521 320 423 440 582 506 669 30 39 116 153 193 255 132 174 156 205 180 234 6
7 15 19 20 28 6 9 73 99 150 200 170 224 388 510 579 763 79 105 217 287 307
405 278 367 605 799 709 937 55 73 106 141 114 150 8 10 119 155 246 323 126
168 303 401 392 518 90 118 179 235 198 262 19 27 69 93 110 147 107 139 372
487 526 693 111 147 130 177 120 191 -10 15 -107 123 -201 224 -164 177 -477
481 -675 656 -52 46 -97 86 -100 89 -6 6 -239 201 -255 213 -5 4 -21 17 -35
28 -14 12 -52 42 -85 67 -33 25 -62 49 -65 52 -7 8 -265 200 -310 230 -19 13
-37 27 -40 30 -7 8 -155 109 -331 225 -144 95 -494 310 -599 367 -25 14 -70
39 -101 56 -186 102 -266 144 -464 242 -121 59 -299 142 -395 185 -96 42 -188
82 -205 90 -56 25 -340 137 -410 162 -38 13 -79 28 -90 33 -139 61 -908 299
-1049 325 -16 3 -32 8 -36 10 -3 2 -17 6 -31 8 -13 3 -62 15 -109 27 -47 12
-92 23 -100 25 -64 14 -172 37 -205 45 -22 6 -51 12 -65 14 -14 3 -74 14 -135
26 -201 38 -260 49 -305 55 -25 3 -52 8 -60 10 -22 6 -100 17 -200 29 -30 4
-62 9 -70 11 -8 2 -40 7 -70 10 -30 3 -62 8 -70 10 -8 2 -49 7 -90 10 -41 4
-88 9 -105 11 -65 9 -103 13 -185 19 -47 4 -97 8 -112 10 -15 2 -80 6 -145 10
-65 4 -138 8 -163 11 -104 9 -805 24 -813 18z m-1922 -3448 c40 -7 124 -67
182 -129 188 -203 327 -368 414 -493 63 -90 234 -316 322 -426 12 -14 29 -36
37 -48 8 -13 20 -28 25 -34 6 -6 31 -38 55 -71 25 -33 52 -69 62 -80 16 -19
179 -231 225 -291 31 -41 210 -273 239 -309 13 -16 101 -131 197 -255 147
-191 367 -476 609 -790 32 -41 103 -133 158 -205 55 -71 106 -137 113 -145 7
-9 32 -42 57 -75 25 -33 47 -62 50 -65 3 -3 35 -43 70 -90 35 -47 68 -89 72
-95 65 -82 106 -135 164 -211 88 -116 445 -578 504 -654 25 -31 56 -72 70 -91
14 -18 39 -49 55 -69 17 -19 78 -98 135 -175 58 -77 107 -142 110 -145 4 -3
26 -32 51 -65 24 -33 46 -62 49 -65 3 -3 111 -142 240 -310 129 -168 240 -312
247 -320 13 -15 415 -537 546 -708 40 -52 115 -149 167 -216 52 -68 106 -138
120 -156 14 -18 39 -50 55 -71 17 -20 38 -47 47 -60 10 -13 68 -90 130 -170
62 -80 163 -210 223 -288 227 -295 267 -347 283 -366 9 -11 30 -38 47 -60 34
-47 32 -44 88 -115 24 -30 63 -82 88 -116 25 -33 53 -69 62 -80 9 -10 87 -111
173 -224 87 -113 176 -228 198 -256 23 -28 65 -82 93 -120 77 -101 541 -703
628 -814 40 -52 214 -277 385 -500 171 -223 319 -414 328 -425 9 -11 37 -47
62 -80 41 -55 96 -126 283 -367 l67 -87 -47 14 c-27 7 -111 30 -188 50 -159
41 -504 135 -740 202 -88 24 -182 51 -210 58 -88 24 -299 84 -330 94 -16 5
-95 28 -175 51 -169 48 -354 103 -835 246 -192 58 -357 107 -367 110 -9 3
-121 145 -250 317 -128 172 -235 314 -238 317 -3 3 -39 50 -80 105 -95 127
-86 114 -118 156 -15 20 -36 48 -47 63 -44 60 -317 422 -328 436 -32 40 -497
660 -536 714 -24 34 -54 75 -68 91 -30 39 -17 21 -188 250 -83 110 -153 204
-158 210 -20 27 -69 91 -259 345 -114 151 -211 280 -215 285 -4 6 -35 46 -68
90 -33 44 -64 84 -68 90 -25 32 -245 326 -262 350 -11 15 -29 39 -41 54 -11
14 -110 145 -219 291 -109 146 -215 284 -237 307 -21 24 -38 47 -38 51 0 7
-146 207 -188 257 -4 6 -131 174 -281 375 -295 394 -319 423 -362 440 -66 28
-110 -21 -125 -140 -4 -30 -7 -951 -8 -2047 -1 -1095 -4 -1994 -7 -1997 -3 -3
-352 110 -775 252 l-769 259 -1 3999 c0 2208 4 4017 8 4039 21 93 89 188 145
201 15 3 33 7 38 9 6 1 13 1 16 -1 3 -2 18 -5 34 -8z m-8820 -3180 c22 -2 90
-7 150 -10 134 -9 182 -13 463 -37 123 -11 142 -15 136 -28 -22 -56 -111 -325
-159 -481 -65 -215 -151 -550 -190 -745 -9 -44 -19 -89 -21 -100 -3 -11 -11
-56 -19 -100 -8 -44 -17 -89 -19 -100 -2 -11 -7 -43 -10 -70 -4 -28 -11 -56
-15 -63 -8 -14 -158 60 -571 281 -422 227 -836 493 -1065 687 -211 179 -317
327 -318 444 -2 179 250 292 718 322 55 4 102 8 104 10 5 4 760 -5 816 -10z
m10123 -6421 c3 -3 6 -73 7 -156 l0 -150 -25 6 c-14 3 -65 19 -115 34 -49 16
-157 50 -240 76 -82 26 -211 66 -285 90 -74 24 -236 76 -360 115 -124 40 -288
92 -365 117 -77 24 -144 46 -150 47 -6 2 -10 68 -11 172 l0 169 769 -257 c423
-141 771 -259 775 -263z m5610 -1704 c419 -112 1097 -284 1437 -365 205 -48
740 -170 868 -197 47 -10 62 -19 84 -48 15 -20 29 -38 32 -41 4 -3 42 -52 86
-110 43 -58 85 -111 92 -118 7 -7 13 -17 13 -20 0 -4 11 -20 25 -35 21 -22 23
-27 9 -27 -9 0 -270 63 -578 140 -600 149 -742 186 -1211 311 -165 45 -331 89
-370 99 -232 61 -689 190 -695 197 -11 11 -236 308 -244 322 -4 6 -4 11 -1 11
4 0 207 -54 453 -119z"/>
</g>
</svg>
