<?xml version="1.0" encoding="iso-8859-1"?>
<!-- Uploaded to: SVG Repo, www.svgrepo.com, Generator: SVG Repo Mixer Tools -->
<svg height="800px" width="800px" version="1.1" id="Layer_1"
     xmlns="http://www.w3.org/2000/svg"
     viewBox="0 0 511.999 511.999" xml:space="preserve">
<path style="fill:#F4A346;" d="M65.467,71.59c-7.308,7.308-19.156,7.308-26.464,0L5.481,38.069c-7.308-7.308-7.308-19.156,0-26.464
	s19.156-7.308,26.464,0l33.522,33.522C72.774,52.433,72.774,64.282,65.467,71.59z"/>
    <path style="fill:#C6C6C6;" d="M177.716,88.747L75.943,31.514C68.63,27.407,59.311,28.5,53.38,34.431L28.042,59.769
	c-5.931,5.931-7.024,15.25-2.917,22.563l57.149,101.691c5.061,9.011,16.51,12.255,25.521,7.195c1.532-0.861,2.916-1.883,4.099-3.066
	c5.782-5.782,7.147-15.041,2.947-22.52l-2.7-4.708l42.391-42.391l4.718,2.71c9.011,5.061,20.489,1.927,25.549-7.084
	C189.86,105.146,186.726,93.807,177.716,88.747z"/>
    <path style="fill:#F49B40;" d="M195.221,79.606c-7.308-7.308-19.156-7.308-26.464,0l-95.273,95.273
	c-7.308,7.308-7.308,19.156,0,26.464l299.051,299.051c7.308,7.308,19.156,7.308,26.464,0l95.273-95.273
	c7.308-7.308,7.308-19.156,0-26.464L195.221,79.606z"/>
    <path style="fill:#263B74;" d="M410.39,294.776L288.652,416.514l83.805,83.805c7.308,7.308,19.156,7.308,26.464,0l95.273-95.273
	c7.308-7.308,7.308-19.156,0-26.464L410.39,294.776z"/>
    <path style="fill:#FFCC73;" d="M4.328,12.878C-1.797,20.23-1.418,31.17,5.48,38.069L39.002,71.59
	c6.898,6.898,17.839,7.277,25.191,1.151L4.328,12.878z"/>
    <path style="fill:#E2E2E2;" d="M39.631,48.179L28.042,59.767c-5.931,5.931-7.024,15.25-2.917,22.563l57.149,101.69
	c5.061,9.011,16.51,12.255,25.521,7.195c1.532-0.861,2.916-1.883,4.099-3.066c5.782-5.782,7.147-15.041,2.947-22.52l-2.7-4.708
	l20.116-20.116L39.631,48.179z"/>
    <path style="fill:#FFCC73;" d="M119.907,128.455l-46.423,46.423c-7.308,7.308-7.308,19.156,0,26.464l299.049,299.052
	c7.308,7.308,19.156,7.308,26.464,0l46.423-46.424L119.907,128.455z"/>
    <path style="fill:#6A81B5;" d="M348.309,356.857l-59.656,59.656l83.805,83.805c7.308,7.308,19.156,7.308,26.464,0l46.423-46.423
	L348.309,356.857z"/>
    <path style="fill:#0D9EC0;" d="M446.531,71.59c-7.308-7.308-7.308-19.156,0-26.464l33.522-33.522c7.308-7.308,19.156-7.308,26.464,0
	s7.308,19.156,0,26.464L472.996,71.59C465.688,78.899,453.839,78.899,446.531,71.59z"/>
    <path style="fill:#C6C6C6;" d="M429.375,183.839l57.233-101.773c4.107-7.313,3.014-16.632-2.917-22.563l-25.338-25.338
	c-5.931-5.931-15.25-7.024-22.563-2.917L334.099,88.398c-9.011,5.061-12.255,16.51-7.195,25.521
	c0.861,1.532,1.883,2.916,3.067,4.099c5.782,5.782,15.041,7.147,22.52,2.947l4.708-2.7l42.391,42.391l-2.71,4.718
	c-5.061,9.011-1.927,20.489,7.082,25.549C412.975,195.983,424.314,192.851,429.375,183.839z"/>
    <path style="fill:#0D9EC0;" d="M438.516,201.344c7.308-7.308,7.308-19.156,0-26.464l-95.273-95.273
	c-7.308-7.308-19.156-7.308-26.464,0L17.727,378.657c-7.308,7.308-7.308,19.156,0,26.464l95.272,95.273
	c7.308,7.308,19.156,7.308,26.464,0L438.516,201.344z"/>
    <path style="fill:#152F6A;" d="M223.346,416.513L101.608,294.775l-83.805,83.805c-7.308,7.308-7.308,19.156,0,26.464l95.273,95.273
	c7.308,7.308,19.156,7.308,26.464,0L223.346,416.513z"/>
    <path style="fill:#51D2E1;" d="M506.187,11.305c-7.329-6.993-18.933-6.903-26.134,0.299l-33.522,33.522
	c-7.202,7.202-7.291,18.804-0.298,26.134L506.187,11.305z"/>
    <path style="fill:#E2E2E2;" d="M470.84,46.652l-12.487-12.487c-5.931-5.931-15.25-7.024-22.563-2.917L334.099,88.398
	c-9.011,5.061-12.255,16.51-7.195,25.521c0.861,1.532,1.883,2.916,3.067,4.099c5.782,5.782,15.041,7.147,22.52,2.947l4.708-2.7
	l21.014,21.014L470.84,46.652z"/>
    <path style="fill:#51D2E1;" d="M390.563,126.928l-47.321-47.322c-7.308-7.308-19.156-7.308-26.464,0L17.727,378.657
	c-7.308,7.308-7.308,19.156,0,26.464l47.322,47.322L390.563,126.928z"/>
    <path style="fill:#6A81B5;" d="M162.162,355.33l-60.554-60.554l-83.805,83.805c-7.308,7.308-7.308,19.156,0,26.464l47.322,47.321
	L162.162,355.33z"/>
</svg>